<mxfile host="app.diagrams.net" modified="2021-08-24T08:05:24.297Z" agent="5.0 (Macintosh; Intel Mac OS X 10_15_7) AppleWebKit/537.36 (KHTML, like Gecko) Chrome/86.0.4240.193 Safari/537.36" etag="7FBD-q4DZWswKfVwxGCR" version="14.9.8" type="github">
  <diagram id="8XCM1KR0pmMBgqPuOQ3E" name="Page-1">
    <mxGraphModel dx="946" dy="536" grid="1" gridSize="10" guides="1" tooltips="1" connect="1" arrows="1" fold="1" page="1" pageScale="1" pageWidth="827" pageHeight="1169" math="0" shadow="0">
      <root>
        <mxCell id="0" />
        <mxCell id="1" parent="0" />
        <mxCell id="B-SmsLWypqJWTqOaLFKX-1" value="" style="rounded=0;whiteSpace=wrap;html=1;fillColor=#dae8fc;strokeColor=#6c8ebf;" vertex="1" parent="1">
          <mxGeometry x="190" y="240" width="130" height="210" as="geometry" />
        </mxCell>
        <mxCell id="B-SmsLWypqJWTqOaLFKX-2" value="methodOne" style="rounded=0;whiteSpace=wrap;html=1;fillColor=#ffe6cc;strokeColor=#d79b00;" vertex="1" parent="1">
          <mxGeometry x="200" y="380" width="110" height="50" as="geometry" />
        </mxCell>
        <mxCell id="B-SmsLWypqJWTqOaLFKX-3" value="methodTwo" style="rounded=0;whiteSpace=wrap;html=1;fillColor=#ffe6cc;strokeColor=#d79b00;" vertex="1" parent="1">
          <mxGeometry x="200" y="320" width="110" height="50" as="geometry" />
        </mxCell>
        <mxCell id="B-SmsLWypqJWTqOaLFKX-4" value="methodThree" style="rounded=0;whiteSpace=wrap;html=1;fillColor=#ffe6cc;strokeColor=#d79b00;" vertex="1" parent="1">
          <mxGeometry x="200" y="260" width="110" height="50" as="geometry" />
        </mxCell>
        <mxCell id="B-SmsLWypqJWTqOaLFKX-5" value="虚拟机栈" style="text;html=1;align=center;verticalAlign=middle;resizable=0;points=[];autosize=1;strokeColor=none;" vertex="1" parent="1">
          <mxGeometry x="230" y="190" width="60" height="20" as="geometry" />
        </mxCell>
      </root>
    </mxGraphModel>
  </diagram>
</mxfile>
